/* XPM */
static char *_dc49bbfde184b2cdc9718665da4f08e6JRxcbrCzeSYHvm3[] = {
/* columns rows colors chars-per-pixel */
"56 57 214 2 ",
"   c None",
".  c #241B16",
"X  c #231E1C",
"o  c #281F19",
"O  c #23221C",
"+  c #2A241C",
"@  c #29271C",
"#  c #23331D",
"$  c #211F20",
"%  c #1F2A2C",
"&  c #1F272A",
"*  c #1E2D33",
"=  c #1E3235",
"-  c #1D343C",
";  c #1C393E",
":  c #212323",
">  c #2E2B20",
",  c #212729",
"<  c #222A2B",
"1  c #242A2A",
"2  c #283922",
"3  c #3A3C2B",
"4  c #353726",
"5  c #24393C",
"6  c #233436",
"7  c #274626",
"8  c #36442B",
"9  c #285A2B",
"0  c #344F34",
"q  c #2C6633",
"w  c #356B39",
"e  c #337636",
"r  c #3D793D",
"t  c #266D30",
"y  c #475939",
"u  c #454C35",
"i  c #4A643D",
"p  c #1B3B43",
"a  c #1B3944",
"s  c #2C3D43",
"d  c #1A424B",
"f  c #1B4047",
"g  c #194454",
"h  c #184A53",
"j  c #174E5B",
"k  c #194E5B",
"l  c #17525C",
"z  c #1A5157",
"x  c #27454A",
"c  c #2A4C53",
"v  c #25554B",
"b  c #1F685F",
"n  c #246B59",
"m  c #2C6A49",
"M  c #174D61",
"N  c #145D6B",
"B  c #155668",
"V  c #145972",
"C  c #135E79",
"Z  c #1D5E76",
"A  c #265A65",
"S  c #315561",
"D  c #1A6769",
"F  c #126574",
"G  c #12627C",
"H  c #116D7D",
"J  c #186C74",
"K  c #266975",
"L  c #296973",
"P  c #515F40",
"I  c #586B47",
"U  c #457D42",
"Y  c #5D734B",
"T  c #5E784C",
"R  c #647C51",
"E  c #34843D",
"W  c #2E873B",
"Q  c #398B42",
"!  c #319A43",
"~  c #3AA049",
"^  c #498A47",
"/  c #449C4C",
"(  c #5C8B52",
")  c #5B9955",
"_  c #528F4E",
"`  c #668A56",
"'  c #4CA653",
"]  c #5AAE5C",
"[  c #58B15C",
"{  c #5EB460",
"}  c #69AC62",
"|  c #7FA56A",
" . c #78A968",
".. c #61B461",
"X. c #74B76B",
"o. c #7BBE70",
"O. c #759661",
"+. c #85BB73",
"@. c #90BE79",
"#. c #89C378",
"$. c #92C47C",
"%. c #92C87E",
"&. c #0F6D8E",
"*. c #0F6E85",
"=. c #116583",
"-. c #106F80",
";. c #106C8C",
":. c #0F758D",
">. c #0F7184",
",. c #117283",
"<. c #187889",
"1. c #0F6F91",
"2. c #0E7393",
"3. c #0D7A94",
"4. c #0D7B9C",
"5. c #0D7599",
"6. c #167D94",
"7. c #247C8B",
"8. c #347587",
"9. c #2B7E93",
"0. c #38778C",
"q. c #0C7CA2",
"w. c #188696",
"e. c #13989D",
"r. c #16969D",
"t. c #10838E",
"y. c #288798",
"u. c #34859C",
"i. c #39869D",
"p. c #34899E",
"a. c #2B909F",
"s. c #24808B",
"d. c #0B81A4",
"f. c #0A83AB",
"g. c #0C88A7",
"h. c #1588AB",
"j. c #0E95AA",
"k. c #169BA2",
"l. c #1A9CA3",
"z. c #1797A8",
"x. c #0986B2",
"c. c #0989B4",
"v. c #078FBE",
"b. c #088DBC",
"n. c #138EB8",
"m. c #178DB2",
"M. c #0B93B4",
"N. c #0A91BE",
"B. c #1393BD",
"V. c #1A9DBB",
"C. c #288AA7",
"Z. c #338DA4",
"A. c #3B89A1",
"S. c #308AA8",
"D. c #2899A9",
"F. c #3591A6",
"G. c #319AAE",
"H. c #3598AA",
"J. c #218CB0",
"K. c #269BB8",
"L. c #3399B2",
"P. c #1BA1AB",
"I. c #1EA3B4",
"U. c #24A3AB",
"Y. c #2BA6AE",
"T. c #22A5B3",
"R. c #2AA3B4",
"E. c #26ABBC",
"W. c #2AADBD",
"Q. c #2AA7B5",
"!. c #37A9B7",
"~. c #36B0BB",
"^. c #4196AC",
"/. c #46A9B9",
"(. c #46B3BF",
"). c #0D93C0",
"_. c #1296C1",
"`. c #1799C2",
"'. c #1C9CC3",
"]. c #229FC3",
"[. c #1EA0C1",
"{. c #26A2C4",
"}. c #2CA5C5",
"|. c #2DAEC0",
" X c #27A8C1",
".X c #33ABC6",
"XX c #3AADC8",
"oX c #36ABC6",
"OX c #2EB0C0",
"+X c #33B1C2",
"@X c #3CB5C4",
"#X c #3EB1C9",
"$X c #42AEC3",
"%X c #42B6C5",
"&X c #4CB4C3",
"*X c #44B9C7",
"=X c #4CB9C6",
"-X c #44B5CA",
";X c #4AB6CA",
":X c #46B9C8",
">X c #4CBBCB",
",X c #54BECD",
"<X c #58BFCD",
"1X c #52B7C5",
"2X c #57C0CD",
"3X c #5BC2CF",
"4X c #5FC3D0",
"5X c #6BC6D5",
"6X c #64C4D2",
"7X c #78CBDB",
"8X c #8AD1E1",
"9X c #98D6E7",
"0X c #87CFE1",
"qX c #A7DBED",
/* pixels */
"                                                                                                                ",
"                                                                                                                ",
"                                                                                                                ",
"                                                                        X o + > > o                             ",
"                                                                        @ 3 P Y Y > .       . + +               ",
"                                                                        3 Y | #.X.8 o . o > 4 8 # O O           ",
"                                                                        3 Y | X.' 7 O + 4 y R ( w 7 O           ",
"                                                                        3 Y  ...! 7 # 8 I O.@.o._ q # .         ",
"                                                                        3 Y  .{ ! 9 u Y | @.%.o.' e # O         ",
"                                      $ $ , & * , , & & : X           + 3 Y  .] W e ( +.#.%.#...E 9 # O .       ",
"                                : , , * a a a a g g g a a - * % & $ . X 4 I } ' ! _  .+.#.+.} _ w 4 # > > .     ",
"                            $ % - g M V =.=.&.5.5.2.1.;.=.C V M g a * : > i _ / W _ ..X.} ) / i i i i i u o .   ",
"                          O - g V 1.q.q.q.).q.).v.c.c.c.x.x.q.q.1.G M a 2 0 U E e E / ' ^ U ^ ^ `  .+.O.R + .   ",
"                        : = V 1.q.c.).).).).).).).).).).v.v.).b.c.f.5.C z x m e e W W E r ^ (  .+.$.$.#.` > .   ",
"                      : 6 M q.c.c.).).).).`.`.`.).).).).v.).).).v.v.x.q.-.D n m w e e e E ) } o.#.#.@.+.I o .   ",
"                    : p A 6.N.).).).).).].}.XXoX.X}.].'.).).).).).N.c.q.<.H J b m w w e E ~ ] { ..] ) ( u o     ",
"                : 5 A y.T.E.[.`.).).).}.-X2X3X3X3X3X3X3X>X;X-XXX}.K.m.6.-.H -.H H n m w t t t 9 7 7 # O .       ",
"                6 z s.D.W.+X#X.X'.`.'.oX2X2X3X3X3X3X3X3X3X3X,X,X;X$XD.6.,.-.-.-.H J b v 7 2 # # # O             ",
"              : x K D.W.+X*X2X:XXX X}.:X2X3X3X3X3X3X3X4X3X4X3X3X2X1XL.s.,.-.-.-.H H F z 6 O X                   ",
"            $ 6 D a.Q.+X*X,X2X>X@X+X+X,X5X5X5X4X3X3X3X3X3X3X3X3X3X,XH.s.,.-.-.-.H H H N d : X                   ",
"            < v 7.U.~.%X2X2X2X2X:X+X>X5X0X8X7X5X4X3X4X3X3X3X3X3X2X&XH.<.>.H >.H :.:.3.>.B ; :                   ",
"          O 5 K a.W.@X>X3X3X3X2X@X-X5X8X9XqX9X7X6X3X3X3X3X4X3X4X<X/.a.<.>.>.:.3.3.d.f.d.2.M *                   ",
"          1 v s.Q.+X>X2X3X3X3X>X-X>X7X9XqXqXqX7X6X4X3X3X3X3X3X3X,X/.a.w.t.t.g.f.g.b.b.b.f.G a :                 ",
"          6 A a.W.@X>X2X3X4X2X>X@X2X7X9XqXqXqX7X6X3X,X3X3X3X3X>X-X!.D.z.z.n.M.M.v.v.v.v.v.5.j %                 ",
"        O 5 L G.oX&X,X3X3X3X2X:X@X#X5X8XqXqX8X5X3X>X2X>X:X:X@X@X+XW.E.E.I.I.M.N.).).v.v.).q.C a :               ",
"        : x 8.H.!.&X<X3X3X3X,X:X+XOX2X5X8X8X5X2X@X+X+X+X+XOX+XOXW.E.E.T.P.P.j.j.x.c.v.).).b.1.a :               ",
"        > c 8.A.^.&X<X6X3X3X:X+XOX XOX2X2X2X*X+XOXOX+X+XOX|.OXOXW.E.T.P.k.k.e.j.g.v.).).).v.q.M *               ",
"      X 1 S u.A.^.^.&X>X;X-X+X|.E. X XOXOXOXOXOX@X>X>X>X2X2X>X:X@X~.U.k.e.e.e.e.e.M.).c.).).q.V *               ",
"      o 5 S i.^.F.L.K.].[. X XE. XE.E.E. XOX*X2X2X2X4X2X2X2X2X2X2X(.U.k.e.e.e.e.e.j.M.v.).v.x.C -               ",
"      : s 8.^.0.F.m.b.).)._.E.|.E.E.E.OXOX@X2X2X4X2X4X4X2X2X4X4X2X@XY.k.e.e.e.e.e.g.g.f.c.v.x.=.- :             ",
"      : s 0.A.S.m.B.N.).).[.OXOXOXOXOXE.OX2X2X3X4X3X4X2X4X4X4X2X2X+XE.P.e.e.e.e.e.t.t.3.4.f.f.G a $             ",
"      : S 0.S.J.M.N.).)._. X@X*X*X@XOXOXOX:X2X3X3X4X4X4X2X2X4X2X2X+XE.I.P.k.e.e.e.t.:.>.:.:.:.V - $             ",
"      1 S 9.J.n.).)._.].}.-X,X<X2X,X:X+X+X@X2X2X3X3X3X3X3X3X2X>X@XW.E.E.T.l.l.r.e.t.:.H H >.H l * X             ",
"      1 S q.`.).).).`.}.;X<X<X<X3X2X,X:X+X@X=X2X3X3X3X3X3X2X,X%X+XW.E.Q.D.D.r.r.r.t.,.,.H ,.F h &               ",
"      1 C h.v.).).).).oX,X4X6X<X3X6X2X>X%X+X@X=X2X3X3X3X2X,X:X+XW.W.R.G.F.F.C.r.r.:.H H H H F f ,               ",
"      * =.q.v.).v.)._.oX,X<X6X<X3X3X3X<X=X~.Q.~.(.2X3X2X>X@XOXW.E.R.G.F.A.A.p.y.w.<.H H H H D ; :               ",
"      < V x.).).v.v.B.}.;X<X<X4X3X3X3X3X=X!.P.Y.~.(.=X(.~.~.W.Q.K.H.A.A.A.A.A.S.w.H H H H F l = O               ",
"      , B q.).c.c.c.m.K.$X,X<X4X3X3X3X2X=X!.P.l.U.Y.Y.Y.U.P.T.R.H.F.A.A.A.A.A.A.y.>.>.H H N f &                 ",
"      , k 5.x.f.d.d.4.y.L.>X4X4X6X3X2X,X*XT.z.k.r.l.l.l.e.P.Y.H.F.A.A.A.A.A.A.A.y.,.H H F l = O                 ",
"      : a =.5.6.:.>.<.6.F.$X4X4X3X2X,X;X}.V.j.k.r.l.l.e.l.U.F.F.A.A.A.^.A.A.^.0.u.,.H H N f & X                 ",
"      X * j H >.>.>.>.<.y./.3X3X<X,X-XXX].'.K.U.Y.Y.Y.Y.Y.H.F.p.u.A.A.A.A.A.A.A.i.,.H F j = O                   ",
"        : ; N ,.H H H >.<.H.2X2X;X-X}.].].oXXX-X(.=X=X&X(.!.C.7.9.9.u.i.A.A.A.A.i.<.J B ; :                     ",
"        X % h F >.H -.-.<.y.(.$X}.].}.oX;X;X<X,X2X2X3X<X&XR.y.<.<.<.8.9.9.A.A.A.i.,.N d % X                     ",
"          O % d D H -.-.,.,.<.h.).].XX<X<X6X<X4X,X>XXX}.B.h.:.>.-.H ,.,.;.<.7.9.0.A 6 :                         ",
"            : = h N H >.H H 3.g.n.].-X<X<X<X<X;X-X}.]._.v.f.:.>.-.-.-.-.H ,.H J K 5 :                           ",
"              : ; l F H >.H :.g.b.'.XX;X,X,X-XoX{.`.).).v.f.:.>.-.-.-.-.H F D l x :                             ",
"              O & ; l F H >.3.f.).).].XX#XXX].'.).).).).v.x.3.-.H H G F N z d = &                               ",
"                O % f l F H 3.x.).).`.`.'.`.).).v.v.).).v.x.3.H F F l h p = & :                                 ",
"                  : % p l F 4.x.v.v.).).).).v.).).).).).c.q.*.N h d ; % & :                                     ",
"                    X & ; z 3.x.v.v.v.).v.v.v.v.c.c.q.q.5.=.M a = & : X                                         ",
"                      X & = G 4.x.c.v.c.v.q.q.q.5.=.V M a a * & O                                               ",
"                          : p B G &.1.&.=.C B M a a * % & &                                                     ",
"                            : * - a a a a * * & , X X                                                           ",
"                              . X X $ X X . X X                                                                 ",
"                                    .                                                                           ",
"                                                                                                                ",
"                                                                                                                "
};
