/* XPM */
static char *b309d1b976d54feab2a9601cd0b7b627RE01WOWmWaZ17eRv[] = {
/* columns rows colors chars-per-pixel */
"64 64 6 1 ",
"  c #98E8F8",
". c #2080F8",
"X c #204880",
"o c #28C8F8",
"O c black",
"+ c #2050C0",
/* pixels */
"               ........                     ........            ",
"               ........                     ........            ",
"               ........                     ........            ",
"               ........                     ........            ",
"           ....XXXXXXXX................XXXXXXXXXXXXX....        ",
"           ....XXXXXXXX................XXXXXXXXXXXXX....        ",
"           ....XXXXXXXX................XXXXXXXXXXXXX....        ",
"           ....XXXXXXXX................XXXXXXXXXXXXX....        ",
"   oooo....XXXXXXXXOOOOOOOOXXXXXXXXXXXXXXXXXXXXXXXXXXXXXXXXX    ",
"   oooo....XXXXXXXXOOOOOOOOXXXXXXXXXXXXXXXXXXXXXXXXXXXXXXXXX    ",
"   oooo....XXXXXXXXOOOOOOOOXXXXXXXXXXXXXXXXXXXXXXXXXXXXXXXXX    ",
"   oooo....XXXXXXXXOOOOOOOOXXXXXXXXXXXXXXXXXXXXXXXXXXXXXXXXX    ",
"   ooooXXXXOOOOOOOOOOOOOOOOOOOOXXXXXXXXOOOOOOOOOOOOOXXXXXXXX....",
"   ooooXXXXOOOOOOOOOOOOOOOOOOOOXXXXXXXXOOOOOOOOOOOOOXXXXXXXX....",
"   ooooXXXXOOOOOOOOOOOOOOOOOOOOXXXXXXXXOOOOOOOOOOOOOXXXXXXXX....",
"   ooooXXXXOOOOOOOOOOOOOOOOOOOOXXXXXXXXOOOOOOOOOOOOOXXXXXXXX....",
"   XXXXOOOOOOOOOOOOOOOOOOOOOOOOOOOOOOOOOOOOOOOOOOOOOOOOOXXXX....",
"   XXXXOOOOOOOOOOOOOOOOOOOOOOOOOOOOOOOOOOOOOOOOOOOOOOOOOXXXX....",
"   XXXXOOOOOOOOOOOOOOOOOOOOOOOOOOOOOOOOOOOOOOOOOOOOOOOOOXXXX....",
"   XXXXOOOOOOOOOOOOOOOOOOOOOOOOOOOOOOOOOOOOOOOOOOOOOOOOOXXXX....",
"   XXXXOOOOOOOOOOOOOOOOOOOOOOOOOOOOOOOOOOOOOOOOOOOOOOOOOXXXX    ",
"   XXXXOOOOOOOOOOOOOOOOOOOOOOOOOOOOOOOOOOOOOOOOOOOOOOOOOXXXX    ",
"   XXXXOOOOOOOOOOOOOOOOOOOOOOOOOOOOOOOOOOOOOOOOOOOOOOOOOXXXX    ",
"   XXXXOOOOOOOOOOOOOOOOOOOOOOOOOOOOOOOOOOOOOOOOOOOOOOOOOXXXX    ",
"   XXXXOOOOOOOOOOOOOOOOOOOOOOOOOOOOOOOOOOOOOOOOOOOOOOOOOXXXX    ",
"   ++++OOOOOOOOOOOOOOOOOOOOOOOOOOOOOOOOOOOOOOOOOOOOOOOOO++++    ",
"   ++++OOOOOOOOOOOOOOOOOOOOOOOOOOOOOOOOOOOOOOOOOOOOOOOOO++++    ",
"   ++++OOOOOOOOOOOOOOOOOOOOOOOOOOOOOOOOOOOOOOOOOOOOOOOOO++++    ",
"   ++++OOOOOOOOOOOOOOOOOOOOOOOOOOOOOOOOOOOOOOOOOOOOOOOOO++++    ",
"       OOOOOOOOOOOOOOOOOOOOOOOOOOOOOOOOOOOOOOOOOOOOOOOOO        ",
"       OOOOOOOOOOOOOOOOOOOOOOOOOOOOOOOOOOOOOOOOOOOOOOOOO        ",
"       OOOOOOOOOOOOOOOOOOOOOOOOOOOOOOOOOOOOOOOOOOOOOOOOO        ",
"       OOOOOOOOOOOOOOOOOOOOOOOOOOOOOOOOOOOOOOOOOOOOOOOOO        ",
"       OOOOOOOOOOOOOOOOOOOOOOOOOOOOOOOOOOOOOOOOOOOOOOOOOoooo    ",
"       OOOOOOOOOOOOOOOOOOOOOOOOOOOOOOOOOOOOOOOOOOOOOOOOOoooo    ",
"       OOOOOOOOOOOOOOOOOOOOOOOOOOOOOOOOOOOOOOOOOOOOOOOOOoooo    ",
"       OOOOOOOOOOOOOOOOOOOOOOOOOOOOOOOOOOOOOOOOOOOOOOOOOoooo    ",
"   ++++OOOOOOOOOOOOOOOOOOOOOOOOOOOOOOOOOOOOOOOOOOOOOOOOO++++    ",
"   ++++OOOOOOOOOOOOOOOOOOOOOOOOOOOOOOOOOOOOOOOOOOOOOOOOO++++    ",
"   ++++OOOOOOOOOOOOOOOOOOOOOOOOOOOOOOOOOOOOOOOOOOOOOOOOO++++    ",
"   ++++OOOOOOOOOOOOOOOOOOOOOOOOOOOOOOOOOOOOOOOOOOOOOOOOO++++    ",
"   OOOOOOOOOOOOOOOOOOOOOOOOOOOOOOOOOOOOOOOOOOOOOOOOOOOOO++++    ",
"   OOOOOOOOOOOOOOOOOOOOOOOOOOOOOOOOOOOOOOOOOOOOOOOOOOOOO++++    ",
"   OOOOOOOOOOOOOOOOOOOOOOOOOOOOOOOOOOOOOOOOOOOOOOOOOOOOO++++    ",
"   OOOOOOOOOOOOOOOOOOOOOOOOOOOOOOOOOOOOOOOOOOOOOOOOOOOOO++++    ",
"   OOOOOOOOOOOOOOOOOOOOOOOOOOOOOOOOOOOOOOOOOOOOOOOOO++++        ",
"   OOOOOOOOOOOOOOOOOOOOOOOOOOOOOOOOOOOOOOOOOOOOOOOOO++++        ",
"   OOOOOOOOOOOOOOOOOOOOOOOOOOOOOOOOOOOOOOOOOOOOOOOOO++++        ",
"   OOOOOOOOOOOOOOOOOOOOOOOOOOOOOOOOOOOOOOOOOOOOOOOOO++++        ",
"   OOOOOOOOOOOOOOOOOOOOOOOOOOOOOOOOOOOOOOOOOOOOOOOOO++++        ",
"   OOOOOOOOOOOOOOOOOOOOOOOOOOOOOOOOOOOOOOOOOOOOOOOOO++++        ",
"   OOOOOOOOOOOOOOOOOOOOOOOOOOOOOOOOOOOOOOOOOOOOOOOOO++++        ",
"   OOOOOOOOOOOOOOOOOOOOOOOOOOOOOOOOOOOOOOOOOOOOOOOOO++++        ",
"   ++++OOOOOOOOOOOOOOOOOOOOOOOOOOOOOOOOOOOOOOOOO++++            ",
"   ++++OOOOOOOOOOOOOOOOOOOOOOOOOOOOOOOOOOOOOOOOO++++            ",
"   ++++OOOOOOOOOOOOOOOOOOOOOOOOOOOOOOOOOOOOOOOOO++++            ",
"   ++++OOOOOOOOOOOOOOOOOOOOOOOOOOOOOOOOOOOOOOOOO++++            ",
"       ++++++++OOOOOOOOOOOOOOOOOOOOOOOO+++++++++                ",
"       ++++++++OOOOOOOOOOOOOOOOOOOOOOOO+++++++++                ",
"       ++++++++OOOOOOOOOOOOOOOOOOOOOOOO+++++++++                ",
"       ++++++++OOOOOOOOOOOOOOOOOOOOOOOO+++++++++                ",
"               ++++++++++++++++++++++++                         ",
"               ++++++++++++++++++++++++                         ",
"               ++++++++++++++++++++++++                         "
};
