/* XPM */
static char *_323129e04c6439ab69cd8b08616932eE9SejUEaZilfpgNe[] = {
/* columns rows colors chars-per-pixel */
"64 64 168 2 ",
"   c None",
".  c #1D242A",
"X  c #22262A",
"o  c #24282C",
"O  c #282B2D",
"+  c #272C32",
"@  c #2A2E33",
"#  c #2E3136",
"$  c #2D343C",
"%  c #30363E",
"&  c #32383E",
"*  c #423C3D",
"=  c #2D3642",
"-  c #2E3845",
";  c #2F3C4D",
":  c #333C45",
">  c #3A3F44",
",  c #333D49",
"<  c #3D4047",
"1  c #36414D",
"2  c #3C434C",
"3  c #354353",
"4  c #3A4654",
"5  c #3E4956",
"6  c #364559",
"7  c #394759",
"8  c #37485D",
"9  c #3B4A5D",
"0  c #3C4D63",
"q  c #3E5067",
"w  c #3E526C",
"e  c #3F5570",
"r  c #4A4345",
"t  c #42454A",
"y  c #4C474A",
"u  c #49484C",
"i  c #444A54",
"p  c #4A4C54",
"a  c #434D5B",
"s  c #4D525D",
"d  c #545155",
"f  c #545359",
"g  c #58575D",
"h  c #645B5E",
"j  c #414F61",
"k  c #435264",
"l  c #4C5564",
"z  c #42546C",
"x  c #495669",
"c  c #46586B",
"v  c #4B596C",
"b  c #5A5B65",
"n  c #505B6F",
"m  c #5D5F6B",
"M  c #415672",
"N  c #445A75",
"B  c #4B5D75",
"V  c #465E7C",
"C  c #495F7C",
"Z  c #645E61",
"A  c #695F65",
"S  c #47607F",
"D  c #4A617E",
"F  c #516276",
"G  c #596171",
"H  c #53647D",
"J  c #58677C",
"K  c #5B687F",
"L  c #646167",
"P  c #65646E",
"I  c #6B676C",
"U  c #636673",
"Y  c #6C6B72",
"T  c #666D7F",
"R  c #706C73",
"E  c #777279",
"W  c #7A747B",
"Q  c #475F80",
"!  c #476080",
"~  c #4B6381",
"^  c #4F6886",
"/  c #526681",
"(  c #536985",
")  c #5C6B84",
"_  c #566D89",
"`  c #596E8A",
"'  c #5B708B",
"]  c #616D85",
"[  c #637085",
"{  c #6D7486",
"}  c #63738C",
"|  c #6B768D",
" . c #647A8F",
".. c #6F788C",
"X. c #727684",
"o. c #7D7A84",
"O. c #71798E",
"+. c #7F7F8D",
"@. c #627390",
"#. c #687790",
"$. c #6D7B93",
"%. c #737C92",
"&. c #797E91",
"*. c #857E85",
"=. c #7C8095",
"-. c #738199",
";. c #7C849B",
":. c #898087",
">. c #85838D",
",. c #8B848B",
"<. c #91878E",
"1. c #868490",
"2. c #8F8790",
"3. c #8F8A93",
"4. c #81869C",
"5. c #83899D",
"6. c #8A8A9C",
"7. c #948B93",
"8. c #9C8F97",
"9. c #948F98",
"0. c #9B929B",
"q. c #828AA3",
"w. c #8B8EA3",
"e. c #8B91A5",
"r. c #8C93A9",
"t. c #9393A4",
"y. c #9C97A5",
"u. c #9A97A9",
"i. c #9699AC",
"p. c #9B9AAD",
"a. c #A197A0",
"s. c #A59BA4",
"d. c #A89DA6",
"f. c #A49CA9",
"g. c #AA9EA9",
"h. c #ADA2AC",
"j. c #B0A4AF",
"k. c #A4A1B3",
"l. c #ACA5B6",
"z. c #ABA7B8",
"x. c #AEA9BA",
"c. c #B2A6B2",
"v. c #B5AAB5",
"b. c #B8ABB7",
"n. c #B4ACBC",
"m. c #BAAEB9",
"M. c #BEB1BD",
"N. c #BDB4C3",
"B. c #C1B5C2",
"V. c #C4B7C4",
"C. c #C6B9C6",
"Z. c #C7BAC7",
"A. c #C4BACA",
"S. c #CBBDCB",
"D. c #CEC0CE",
"F. c #D0C1CF",
"G. c #CEC2D1",
"H. c #D2C5D2",
"J. c #D3C5D3",
"K. c #D5C7D5",
"L. c #D6C8D7",
"P. c #D8C9D7",
"I. c #DBCCDA",
"U. c #DCCDDB",
"Y. c #DFD0DE",
"T. c #E0D1DF",
"R. c #DFD1E0",
"E. c #E1D2E1",
/* pixels */
"                                                                                                                                ",
"                                                                                                                                ",
"                                                                                                                                ",
"                                                                                                                                ",
"                                                                                                                                ",
"                                                                                                                                ",
"                                                                                                                                ",
"                                                                                                                                ",
"                                                                                                                                ",
"                                                                                                                                ",
"                                                                                                                                ",
"                                                                                                                                ",
"                                %             : > #                                                               o X           ",
"                                1             4 i >                                                               # @           ",
"                            , H z =         > z F x 1                                                   $ : , 2 a 2 > < < $ X   ",
"                            3 H C ,         1 S _ H 7                                                   : 3 3 s U U m b b i #   ",
"    X . X o O               k D ! 8 $       4 S ( / z ,                                           : 4 0 9 0 0 +.f.f.f.y.0.o.p   ",
"    # $ @ + @               c ! S w =       7 V ! / C 3                                           1 7 0 N V B x.K.K.K.H.S.f.P   ",
"  < f b 4 = $ , :           k S S M -       3 V ! ~ C 9 $                                     7 z 0 0 w D / O.A.E.E.U.H.V.s.W   ",
"  t E 1.G 7 ; 1 : $         9 V C N ;       , M V ! V w =                                   , 9 z N N D ' #.t.L.E.U.F.V.v.0.*.  ",
"  t E 0.X.n 9 9 4 1         3 N C V 8       : 9 N V ! N ,                                   9 z N V ) %.r.i.N.U.I.C.h.M.j.9.:.  ",
"    I 0.>.T v w w 0 5 >     - M V C 0         , 0 V S N 3 : 2 %                       > 7 z N V V C &.p.N.G.L.U.S.h.:.          ",
"    L 0.3.{ v z N M k 7     $ 9 M C w         : 0 w N V 8 , 5 >                       4 0 M V Q V / u.B.L.U.U.C.j.a.E           ",
"            p l C V N M M k & , 0 V N 8     % 4 0 8 w C w 3 z 3 > 5 ,             4 z M N V V V V ] B.I.U.U.D.h.,.              ",
"            u l z V S S N x 2 , 8 M V 0     , j z 9 0 N M 8 z 4 , 4 3             9 M V S V C C B =.L.E.U.D.v.0.W               ",
"                4 M V ! V V z k 4 0 V M ; k 0 N S N 9 z N 3 9 2 2 3 q M 7 : % 4 z M V S V B H H J k.U.E.I.b.2.                  ",
"                > w N ! ! ! S B 9 8 N N 3 k N ! _ ( 0 0 N 8 a 2 2 8 N N 0 1 , 5 z S ! ! C K %.%.=.A.E.U.S.g.E                   ",
"                    z S ! ! ! ~ B q 0 N 0 M S ( ` _ z 8 e 9 v a 5 0 V S N 0 9 z N ! ! ! / w.z.z.x.L.E.K.h.                      ",
"                    j C V ! ! ^ ( v 9 M w V ! _ ' ' S 6 w w J v k z S ^ ^ N N C V V Q S ) N.L.L.I.E.U.N.7.                      ",
"                      x N ! ! ~ ^ D 0 w M V ! _ ' ' ( 0 w M ' H B D ( _ ^ C V S V V V V | D.E.E.E.E.S.f.                        ",
"                      a z S ! C ! / z q N S ! _ ` ` _ C z S  .' ` ` ` _ ! C V S V V V C 4.L.E.E.E.I.m.2.                        ",
"                      i a C ! C V ~ B z N S ! ( _ _ ` ~ H )  . .' _ _ _ ! C ! ! ~ ~ ~ H u.U.E.E.U.C.c.*.                        ",
"                        2 B V Q V ~ ) J V ! ! ~ ( _ ` ` $.O.{ %.} _ _ _ ! ! ! ! } } } { m.R.E.E.J.c.                            ",
"                        < B B ~ C ' ;.%.D V S ! ~ ^ ` -.e.6.t.i.5.#._ ~ V ! ! ! q.r.w.t.S.E.R.U.B.g.                            ",
"                            l B ~ ;.l.y.J V S S ! ! } i.k.h.A.S.n.w.) V V Q ! ~ x.A.A.A.U.E.U.S.g.                              ",
"                            s x B i.v.h.O.S S S V ~ ;.b.0.8.J.T.H.z.%.) D C V ( A.E.E.E.E.U.S.b.0.                              ",
"                              i l n.s.0.p./ V V V ] k.m.L h m.T.U.G.z.6.[ D N | G.E.E.E.E.H.m.0.                                ",
"                              t s B.7.<.B.O./ D _ ;.A.m.r * g.T.E.E.H.n.5.[ / 5.K.E.U.U.K.B.h.>.                                ",
"                                  M.,.*.H.p.%.[ 4.x.L.m.y r d.T.E.E.U.G.n.t.5.k.U.E.S.B.m.s.                                    ",
"                                  c.7.*.I.A.u.6.l.L.I.M.h h j.T.U.T.U.Y.L.B.n.A.E.I.v.a.s.7.                                    ",
"                                  0.g.s.U.L.N.n.S.I.I.S.<.,.B.T.E.T.U.E.T.K.G.L.E.S.9.E 0.                                      ",
"                                  *.M.B.U.P.K.U.U.H.S.U.M.m.J.T.T.U.U.T.Y.Y.Y.E.Y.m.W d                                         ",
"                                  W c.K.T.L.S.E.U.B.B.T.L.J.U.T.E.T.U.T.Y.E.E.E.I.s.Y u                                         ",
"                                    0.P.E.G.m.U.K.h.m.T.U.U.T.T.E.U.U.U.Y.T.T.E.D.9.Y                                           ",
"                                    <.C.U.K.N.U.K.c.M.E.E.E.U.U.U.D.U.U.T.E.Y.K.m.>.L                                           ",
"                                      a.S.U.H.U.U.S.S.E.U.E.T.U.H.m.D.U.E.E.U.B.0.>.g                                           ",
"                                      ,.h.S.K.P.U.U.P.E.U.T.T.U.C.c.S.U.E.U.S.b.*.o.f                                           ",
"                                        E s.Z.U.E.E.T.E.E.E.E.K.M.v.S.U.U.C.g.  R E                                             ",
"                                        d ,.m.D.J.U.U.U.U.U.U.D.v.v.A.J.S.m.7.  Z Y                                             ",
"                                              s.g.B.Z.Z.Z.C.C.M.h.h.b.h.s.      d                                               ",
"                                              *.:.h.v.b.b.v.v.c.s.s.h.7.*.      u                                               ",
"                                                W d.c.c.c.h.h.h.s.s.g.:.                                                        ",
"                                                                                                                                ",
"                                                                                                                                ",
"                                                                                                                                ",
"                                                                                                                                ",
"                                                                                                                                ",
"                                                                                                                                ",
"                                                                                                                                ",
"                                                                                                                                ",
"                                                                                                                                ",
"                                                                                                                                ",
"                                                                                                                                ",
"                                                                                                                                "
};
