/* XPM */
static char *_3584cface3c45dfbb94836838dfb8157sO0L2ihxfIPj8Eo[] = {
/* columns rows colors chars-per-pixel */
"64 64 168 2 ",
"   c None",
".  c #18232F",
"X  c #1F2A37",
"o  c #2A2B2D",
"O  c #232C36",
"+  c #2A2F34",
"@  c #232E3A",
"#  c #2D3237",
"$  c #2D333A",
"%  c #33363A",
"&  c #35393D",
"*  c #253241",
"=  c #2A3544",
"-  c #2F3845",
";  c #2D3A4B",
":  c #353C45",
">  c #383E43",
",  c #353E49",
"<  c #2E3E52",
"1  c #313F51",
"2  c #3C4147",
"3  c #37414D",
"4  c #3A424D",
"5  c #334255",
"6  c #3B4653",
"7  c #3E4955",
"8  c #36465B",
"9  c #3A4758",
"0  c #37485E",
"q  c #3C4A5B",
"w  c #374961",
"e  c #3A4C64",
"r  c #3B4F68",
"t  c #3D5067",
"y  c #3E526C",
"u  c #3F5470",
"i  c #41464A",
"p  c #4E4749",
"a  c #4F494A",
"s  c #424A53",
"d  c #414D5D",
"f  c #44505E",
"g  c #5A5154",
"h  c #5E575A",
"j  c #625A5D",
"k  c #404E60",
"l  c #435364",
"z  c #495664",
"x  c #43556B",
"c  c #49596D",
"v  c #505865",
"b  c #525C6C",
"n  c #425671",
"m  c #455974",
"M  c #495C73",
"N  c #4B5D73",
"B  c #495D75",
"V  c #4D5F75",
"C  c #445B78",
"Z  c #465B78",
"A  c #455C7A",
"S  c #475E7D",
"D  c #485F7C",
"F  c #485F7D",
"G  c #625B60",
"H  c #4D6077",
"J  c #4D6179",
"K  c #4B617D",
"L  c #49617F",
"P  c #4D627C",
"I  c #4E647D",
"U  c #51647C",
"Y  c #686269",
"T  c #6F686D",
"R  c #70666A",
"E  c #676772",
"W  c #6A6D7B",
"Q  c #706870",
"!  c #7A6E74",
"~  c #7D7277",
"^  c #7A7379",
"/  c #80767C",
"(  c #475F81",
")  c #485F80",
"_  c #476080",
"`  c #496180",
"'  c #4C6483",
"]  c #4E6786",
"[  c #4F6886",
"{  c #526681",
"}  c #526882",
"|  c #536A86",
" . c #536A87",
".. c #5B6C83",
"X. c #526A88",
"o. c #536B89",
"O. c #566E8A",
"+. c #5B6E8A",
"@. c #5D718B",
"#. c #59718D",
"$. c #6F7486",
"%. c #63748F",
"&. c #6B7488",
"*. c #6D788E",
"=. c #7D7680",
"-. c #777D8D",
";. c #7C7F8E",
":. c #657792",
">. c #6B7790",
",. c #6D7C96",
"<. c #757E94",
"1. c #787F92",
"2. c #717F98",
"3. c #837C83",
"4. c #8A7F85",
"5. c #768097",
"6. c #7A8297",
"7. c #7C859B",
"8. c #83828D",
"9. c #8C848B",
"0. c #91878E",
"q. c #8E8791",
"w. c #81889D",
"e. c #8C8C9B",
"r. c #938B92",
"t. c #9C929B",
"y. c #828AA1",
"u. c #8A8DA3",
"i. c #9C98A6",
"p. c #9596AB",
"a. c #9699AE",
"s. c #9D9BAC",
"d. c #9E9EB0",
"f. c #A297A0",
"g. c #A59AA4",
"h. c #AA9DA6",
"j. c #A09CAB",
"k. c #AC9FAA",
"l. c #ADA2AD",
"z. c #B0A2AC",
"x. c #A4A3B4",
"c. c #A9A5B5",
"v. c #ADA7B9",
"b. c #ACA9BA",
"n. c #B3A7B2",
"m. c #B6ABB5",
"M. c #B9ABB7",
"N. c #B4ACB8",
"B. c #BAAEBA",
"V. c #BDB1BC",
"C. c #C0B2BF",
"Z. c #BEB6C6",
"A. c #C3B6C2",
"S. c #C6B9C6",
"D. c #C8B9C6",
"F. c #C3BACA",
"G. c #CABDCA",
"H. c #CEC0CE",
"J. c #D0C1CF",
"K. c #CCC1D1",
"L. c #D3C4D2",
"P. c #D5C9D6",
"I. c #D8C9D7",
"U. c #D7CAD9",
"Y. c #DBCCDB",
"T. c #DFD0DF",
"R. c #E0D1DF",
"E. c #E2D2E1",
/* pixels */
"                                                                                                                                ",
"                                                                                                                                ",
"                                                                                                                                ",
"                                                                                                                                ",
"                                                                                                                                ",
"                                                                                                                                ",
"                                                                                                                                ",
"                                                                                                                                ",
"                                                                                                                                ",
"                                                                                                                                ",
"                                                                                                                                ",
"                              7 6             q c d                                                                             ",
"                              l q             l V l                                                                             ",
"                            l J m ;         6 C X.J l $                                                                         ",
"                            x  .` 1         6 ` O.X.x :                                                                         ",
"                            x ] ` 0 +       6 ` X.] C 5 $ 4 6 6 4                                                               ",
"                            x ` ` e $       5 S ` ` ` e - 4 6 s 6                                                               ",
"                            e S ` y :       - y S ` ` n , d l l l N x ,                                                         ",
"                            8 C ` C 8       $ e A ` ` C 5 l c c D N x 4 &                                                       ",
"                            5 y ` S e       , 8 y n D S w q d d m B N l 6                                                       ",
"                              8 A ` n - 4 7 q q 8 e A ` w 5 2 : e C L P x 6 #                                                   ",
"                              5 y A C 5 6 d x x r e y D t ; > & q y D  .D k ,                                                   ",
"                                5 y D r q n D P P y 0 m y ; 4 2 s q C ' L C l 6 $                                               ",
"                                ; e C m r S '  .X.B q r t ; q s 7 q C ` L L B l ,                                               ",
"                                , 8 e C x `  .O.O.{ x 5 0 5 c l d x D ` ` ` ` J l x 6 >                                         ",
"                                6 8 8 m C ` X.O.#.#.B 5 8 e U c x V ` ` ` ` ` X.P B d 6                                         ",
"                              q x m w u A `  .O.#.#.} t w x  .I P X.] ` ` ` ` ] ] P M x c 6                                     ",
"                              e L X.y y C `  .O.#.#.O.D x J #.O.X.O.] D ` ` ` ` ] X. .` B d                                     ",
"                            x n ` %.U m A ` ] X.O.O.O.{ ..+.%.:. .[ ] ) ` ` ` ` ] X.X.' P c n                                   ",
"                          4 x D ] 2.&.{ D ` ` X.O.O. .+.1.-.6.7.@.] ` ( ` ` ` ` ` ` ` ` X.' C 6                                 ",
"                          d m ` +.a.e.<.P ` ` ]  .] @.7.e.i.c.x.y.:.` D ` ` ` ` ` ` ` ` ] ] A d                                 ",
"                        q m D L ,.Z.g.s...) ` ` ` ] <.j.t.B.P.K.v.y.{ D ` ` ` ` ( ` ) ` ` D ` l : o                             ",
"                        x ` ` A <.L.t.n.7.' D ` L %.p.l.4.h.Y.R.G.x.<...` ` ` ` ) ` ( ` ` ` D d : $                             ",
"    v s             s x C ` D Z 1.G.~ n.b.+.S ) U u.F.k.j ! D.R.Y.K.c.<.{ ` D ` ` ) ` ` ` ` m > : , : +                 f s 4   ",
"    b l             d m ` ` ) U 1.G.Y n.K.7.@.%.*.v.Y.l.a g M.R.E.E.G.s.>.+.P D ` ) ` ` ` ` x & : q 4 $                 c l 5   ",
"  V ..J J ..c > i c m D ` ` ` :.;.A.R n.Y.b.p.a.x.K.Y.z.a p n.R.E.E.Y.F.d.7...C ` ` ` ` ` ` C : : x x , % e P U U U L H U C 8   ",
"  N #.X.P ..V 2 s c ` ` ` `  .y.8.n./ M.Y.L.Z.F.G.Y.T.M.G h M.E.E.E.E.Y.F.d.<.N C D ` ` ` ` A 6 , x m 6 & r L U U U P P  .A 8   ",
"$ m X.X. .+.U s l M ` ` ` ' :.d.q.t.f.G.Y.G.P.Y.Y.Y.T.G.r.9.G.E.E.E.E.E.Y.F.c.W e y C ` ` ` ` y 6 6 q > : x ' { {  .X.` D e     ",
"# x L `  .O. .z c C ` ` ` ' 2.N.r.9.M.Y.I.G.Y.T.Y.L.Y.Y.A.A.Y.E.E.E.T.T.E.Y.G.3.6 e x C ` ` ` A q , , : 6 C X.] ]  . .D y <     ",
"# 5 y C ' ' ' c m D D P P V $.M.r.3.h.Y.Y.A.J.L.L.V.Y.R.P.P.E.E.E.T.E.E.E.I.A.9.4 8 5 r n D ` ` n q 9 q x D ] ] ' L m e e       ",
"  = 0 y C m m m m A C U U b E       9.J.Y.A.A.A.A.l.Y.E.T.T.T.T.Y.I.R.R.Y.G.l.      = 5 r n A ` C n x n D ` ` ` A t 0 ;         ",
"  @ 5 5 0 8 w y y r x U U b Y       3.l.S.G.G.G.G.M.Y.E.E.E.E.E.P.A.L.G.A.S.g.      @ 5 e 8 r n u n n n C m n y e < 5 =         ",
"      * = ; < e 0 5 q                 3.l.G.L.L.L.G.Y.E.E.E.E.E.G.k.C.m.f.                = 5 w 8 e e r e e 8 5 ; @             ",
"      O @ * = 8 8 ; 6                 T f.m.M.S.G.G.H.L.L.L.L.H.n.9.n.l.r.                @ ; 5 5 5 5 5 5 8 5 ; * .             ",
"                                          9.r.n.M.M.M.M.M.M.M.n.q.Q                               = - * *                       ",
"                                          ^ ^ h.l.l.l.l.l.l.l.g.=.G                               + + X X                       ",
"                                                                                                                                ",
"                                                                                                                                ",
"                                                                                                                                ",
"                                                                                                                                ",
"                                                                                                                                ",
"                                                                                                                                ",
"                                                                                                                                ",
"                                                                                                                                ",
"                                                                                                                                ",
"                                                                                                                                ",
"                                                                                                                                ",
"                                                                                                                                ",
"                                                                                                                                ",
"                                                                                                                                ",
"                                                                                                                                ",
"                                                                                                                                ",
"                                                                                                                                ",
"                                                                                                                                "
};
