/* XPM */
static char *_14ac681f8464cd893f01018f95fe06a5fKE7eOmnTCcbB7i[] = {
/* columns rows colors chars-per-pixel */
"64 64 140 2 ",
"   c #595DE2",
".  c #4F6DE1",
"X  c #5564E2",
"o  c #5C61E3",
"O  c #526AE2",
"+  c #5C6FE4",
"@  c #4777E1",
"#  c #4A75E1",
"$  c #457BE1",
"%  c #4D7BE6",
"&  c #5074E5",
"*  c #5D76E4",
"=  c #5D77E4",
"-  c #5D76E5",
";  c #5D77E5",
":  c #5E77E5",
">  c #5C75E4",
",  c #5C72E4",
"<  c #5D79E4",
"1  c #5D78E5",
"2  c #5D79E5",
"3  c #5E79E5",
"4  c #5E7EE6",
"5  c #5E7FE6",
"6  c #6063E3",
"7  c #6064E3",
"8  c #6165E3",
"9  c #3E84E0",
"0  c #3F84E0",
"q  c #3F85E0",
"w  c #3F85E1",
"e  c #3F85E0",
"r  c #4180E0",
"t  c #4181E0",
"y  c #4280E0",
"u  c #4380E0",
"i  c #4281E0",
"p  c #4381E0",
"a  c #4280E1",
"s  c #4380E1",
"d  c #4282E0",
"f  c #4383E0",
"g  c #4282E1",
"h  c #4084E0",
"j  c #4085E0",
"k  c #4185E0",
"l  c #4085E1",
"z  c #4186E0",
"x  c #4086E1",
"c  c #4186E1",
"v  c #4187E1",
"b  c #4286E0",
"n  c #4287E0",
"m  c #4386E1",
"M  c #4387E1",
"N  c #4086E2",
"B  c #4187E3",
"V  c #4487E1",
"C  c #4B80E6",
"Z  c #4B81E7",
"A  c #4A82E7",
"S  c #4B82E7",
"D  c #4C80E7",
"F  c #4188E3",
"G  c #4288E3",
"H  c #4689E1",
"J  c #4488E2",
"K  c #4689E2",
"L  c #4288E4",
"P  c #4388E4",
"I  c #4289E4",
"U  c #4389E4",
"Y  c #4289E5",
"T  c #4389E5",
"R  c #438AE5",
"E  c #4489E5",
"W  c #458CE7",
"Q  c #458CE8",
"!  c #468CE8",
"~  c #478CE8",
"^  c #468DE8",
"/  c #478DE8",
"(  c #468DE9",
")  c #478DE9",
"_  c #478EE8",
"`  c #478EE9",
"'  c #468DE8",
"]  c #4889E8",
"[  c #488AE8",
"{  c #488BE8",
"}  c #498BE8",
"|  c #488BE9",
" . c #498CE8",
".. c #488DE8",
"X. c #498DE8",
"o. c #4A8DE8",
"O. c #4A8CE9",
"+. c #488EE8",
"@. c #498EE8",
"#. c #498FE8",
"$. c #488EE9",
"%. c #498EE9",
"&. c #498FE9",
"*. c #4A8EE8",
"=. c #4A8FE8",
"-. c #4B8EE9",
";. c #4A8FE9",
":. c #4B8FE9",
">. c #4C8EE8",
",. c #4C8FE8",
"<. c #4D8FE8",
"1. c #488EE9",
"2. c #4A90E9",
"3. c #4B90E9",
"4. c #4A90EA",
"5. c #4E90E8",
"6. c #4D91EA",
"7. c #5592E8",
"8. c #5692E8",
"9. c #5693E8",
"0. c #5793E8",
"q. c #5893E8",
"w. c #5993E8",
"e. c #5A94E8",
"r. c #5B94E8",
"t. c #5B95E8",
"y. c #5C95E8",
"u. c #608CE7",
"i. c #608DE7",
"p. c #608FE7",
"a. c #6090E7",
"s. c #6190E7",
"d. c #6091E7",
"f. c #6192E7",
"g. c #6196E7",
"h. c #6196E7",
"j. c #6196E8",
"k. c #6197E8",
"l. c #6297E8",
"z. c #6296E8",
/* pixels */
"      o     o   b b *.*.2.*.*.2.o o 6 6 6 o 6 6 6 6 6 6 6 6 6 8 6 8 8 6 6 6 8 8 H H 6.6.2.2.2.2.o   o   6     o         o       ",
"              o b b W ../ *.2.*.o   o o o o o 6   6 o 6 o 6 o 6 o 6 o 6 o 6 o 6 J J 2.2.2...#.2.o o o o             o           ",
"        o       0 b b 0 x x *./ *.*.o o o 6   6 6 o o 6 o o 6 6 6 6 o 6 6 6 o o J b n b b n ..#.} ..o           6               ",
"                b 0 0 0 b x / / / *.  o     o o o   6   6 o       o o       6 o 0 b b b b b ........                            ",
"                o o x x 0 x x x / / [ [ p h o o     o   o   o o 6   6   o   o o o X b b b b 0 b ....! ! $ 0                     ",
"                    9 x x 0 0 b / ! / / x x                   o       6             b 0 0 0 0 h W ../ Q 0 0                     ",
"                    x 9 9 9 0 9 / / ! ! x h h $ p $ o     o     o                   0 0 0 0 9 9 ..*./ / 9 9 h h p $             ",
"                    9 9 9 9 9 0 / / ! ! 0 x x 9 x x                 o               0 0 0 0 9 9 W W / / 0 9 0 9 9 x             ",
"                    X X 0 0 0 9 9 w / ( w 9 9 9 9 9 $ h w $     o                   X X 9 9 9 9 w w / / 9 w 9 9 x 9 h $ h $     ",
"                        0 0 9 9 9 9 / / 9 9 9 9 w 9 9 w 0 0                             0 9 9 9 w w ( / w 9 9 9 9 x 9 9 0 x     ",
"r $                     X X X X X X / / / / 9 9 9 9 w 9 0 9 $ 0 $ $                     X X X   X X / Q / / 9 9 9 x 0 0 x 9 h $ ",
"9 9                                 / ( ( / 9 9 9 x 9 9 9 w w 9 9 r                                 Q / / / 9 9 x 9 0 0 9 9 9 9 ",
"0 9 $ $                             | | ( / O X X X X X X O 9 w 9 9 $ $                             / / / / X X X X X X X X 9 9 ",
"9 9 w 9                             ( | / /                 9 w 9 9 0 0                             Q / / /       o         9 9 ",
"O X w 9 $ $                         X O q.q.A A             X X O O 0 0 $ $ X                       O X q.y.A A             O X ",
"  X 9 w 9 9                         o   l.l.( /                     0 0 9 9                             l.l./ Q                 ",
"    X O 0 0                             y.z./ /                     O X 9 9                             k.k.| /                 ",
"        0 0                             z.z./ !                         9 9                             z.z.( (                 ",
"        . X $ @                         z.z.w.w.% A                     O O $ @                         k.z.w.w.D % o           ",
"            0 9                         g.z.z.z.( /                         9 9                         k.k.k.k./ /             ",
"            9 9                   o     , + y.z./ (                         0 0                         + + k.k.Q Q             ",
"            9 9                             z.z./ /                         0 9                             k.k./ (             ",
"            9 x @ @                         l.l.9.9.% %                     0 0 @ @                         y.k.9.9.% %         ",
"            9 9 0 9                         z.z.z.y.Q Q                     0 0 9 9                         k.k.l.z.Q Q         ",
"            . O 0 0 @ @                     + , y.z.q.9.% %                 O . 9 x # #                     , , l.l.q.9.% %     ",
"                0 0 0 0 o                       z.y.l.l./ !                     9 9 9 9         X               l.l.l.l./ (     ",
"% % % %         0 0 0 0                         > ; z.z.9.9.1 u.% % % %         9 x 9 9                         > > l.z.8.w.5 5 ",
"! ! / !         w 0 0 0                             z.z.z.z.z.l./ / ! !         9 x 9 x                             y.l.k.k.k.k.",
"8.8.9.9.% % % % 0 9 9 9 # #                         > 1 1 ; z.l.9.9.9.9.% & % & 9 9 9 9 . @                         ; > ; ; z.z.",
"z.z.z.z.[ W Q / w 0 9 0 0 h                                 y.z.z.z.z.y.! ! / / 9 9 9 9 9 9                                 z.z.",
"; 1 1 1 *./ Q / Q B Y Y Y Y # .                             > 2 2 2 > 2 ! ! / ( Y Y Y w Y Y . #                             2 2 ",
"        / / / Q ! Q / / ! / h 0                                         / / / / / / / / Q / 0 0                                 ",
"        & % & & B Q / / ! / Y Y                                         & # & & Y W W ! ! / B B                                 ",
"            o   9 w ( / / ! / /                                               o x 9 W ! / ! / /                                 ",
"                9 9 Y Y B Y / ! & &                                             9 x Y ! Y Y *./ & &                             ",
"                x 9 9 w 9 9 ( / ( (                                             x 9 9 9 9 x ! / ! /                             ",
"                # # x 0 w 9 Q B ( ! & & . .                                     # # 9 x 9 w w Q / / & & . .                     ",
"                    9 9 9 9 0 0 ( ( ! ! 9 9                                         9 9 0 9 w w / ! / Q 9 9                     ",
"                    x 9 9 9 9 w ! ! ! ! 9 9 . . . .                                 w 9 w 9 9 0 Q / Q / 9 9 . . . .             ",
"                    0 x 9 w 9 w ! ! ! ( w w w w 9 w                                 9 9 9 w 0 0 / Q / Q 9 9 9 9 9 9             ",
"                    @ @ 0 0 0 9 Q B ( / 0 9 w 9 w 9 . . . .                         @ @ 9 9 0 0 Y Y Q / 9 x 9 9 9 9 . . . .     ",
"                        9 9 w w 0 0 Q / 9 9 9 9 0 0 0 9 0 0                             9 9 0 0 9 0 / Q x 9 9 9 0 0 9 w 0 0     ",
". O                     @ @ @ @ @ @ / / Y Y w 9 w 0 9 9 0 0 O O . .                     @ @ @ @ @ @ / / B B 9 9 9 0 w 9 9 9 . X ",
"0 0                                 / ! / ( 9 9 w w 9 a 0 0 0 0 0 9                                 ! / / / 9 w 0 0 9 0 9 w 9 9 ",
"9 9 X .                       o     / / / Q @ $ $ $ $ $ @ @ w 9 0 0 . O                             / / ( ( @ @ @ @ @ @ @ @ w w ",
"9 9 9 9                             ( / / /             o   9 w 0 0 w 0                             / ( ( (     o         o 9 9 ",
"$ $ 9 9 X O                         % A >.6.O O             $ @ @ $ 0 0 X O                         % A 7.4.O O             @ $ ",
"  o 9 9 9 9             o               z.z./ /                     9 0 9 9                             k.y.( (     o         o ",
"    $ $ 9 9 X                           z.z./ /                     $ r 9 9                             l.l./ Q                 ",
"        w w                             l.z./ W                         w 9 o                           l.l./ /                 ",
"        $ $ X X                         l.l.2.6.O X                     $ $ X X                         z.l.>.2.O X             ",
"            9 x                         l.l.g.z./ /                 o       9 9                         z.z.z.l./ /             ",
"            9 9                         u.u.g.k./ !                         w w                         u.u.z.l.Q (             ",
"            9 x                             z.k./ /   o                     9 9                             l.l.Q Q             ",
"            9 9   X                         k.k.| :.o X                     9 9 X o           o             y.z.*.*.o X         ",
"            9 9 9 9                         k.g.l.l.` (                     9 9 9 0                         z.z.l.l./ /         ",
"            $ r 9 9 X X                     i.i.y.l.*.*.X X                 w a 9 9 o X                     i.i.l.l.*.*.X X     ",
"                9 9 9 9                         l.l.l.l./ Q                     x 9 9 9                         y.l.l.y.| /     ",
"  X o X         9 9 9 9                         f.f.l.y.| 2.o o   o X o         9 x x 9                         f.f.z.z.*./ o o ",
"Q Q Q Q         9 9 9 9                             l.l.l.z.l.z.Q Q Q Q         9 x 9 9                             z.z.l.l.k.k.",
"( | 4.| o o X X w w w w o o                         z.z.z.f.z.l.| / | (   o o X 9 B 9 9                             f.z.z.z.z.y.",
"y.k.l.l.Q ` Q Q w w w w 9 9                                 l.l.l.z.l.z.( / Q Q 9 9 9 9 9 w                                 l.z.",
"z.z.l.z.` Q / / w 9 9 w 9 9                                 z.z.l.l.z.y.( Q Q Q 9 9 9 9 9 9                                 z.z.",
"        Q / / / / ` ( / / / 9 9                                         / / / ( / ( | ( / ( B B                                 "
};
