/* XPM */
static char *_2a4efd147f142adffc4b962ffda8057AEReMTLiaGVfy5R7[] = {
/* columns rows colors chars-per-pixel */
"64 64 200 2 ",
"   c None",
".  c #14170F",
"X  c #111111",
"o  c #161918",
"O  c #083000",
"+  c #142F0F",
"@  c #252516",
"#  c #2B2B17",
"$  c #25241B",
"%  c #32321A",
"&  c #383B1B",
"*  c #263810",
"=  c #141C22",
"-  c #1E2122",
";  c #162A3A",
":  c #10382D",
">  c #282A27",
",  c #393728",
"<  c #2C3337",
"1  c #2A322D",
"2  c #423F33",
"3  c #1B4308",
"4  c #27480B",
"5  c #384D15",
"6  c #335A12",
"7  c #3D541C",
"8  c #30520E",
"9  c #3A6215",
"0  c #3E6605",
"q  c #335B21",
"w  c #355436",
"e  c #324E35",
"r  c #3D6032",
"t  c #47471E",
"y  c #445C1C",
"u  c #416901",
"i  c #43630F",
"p  c #4B730B",
"a  c #426917",
"s  c #537B14",
"d  c #4F7511",
"f  c #494927",
"g  c #515121",
"h  c #5C5B2A",
"j  c #57562A",
"k  c #4A4835",
"l  c #485436",
"z  c #5C5A33",
"x  c #58563B",
"c  c #514E37",
"v  c #615F2E",
"b  c #615E39",
"n  c #587B24",
"m  c #4E6C37",
"M  c #63632D",
"N  c #646332",
"B  c #6C6B34",
"V  c #6D6B3A",
"C  c #666438",
"Z  c #716E3D",
"A  c #75723D",
"S  c #747438",
"D  c #183247",
"F  c #183C59",
"G  c #152E42",
"H  c #2E3D48",
"J  c #2A3E4E",
"K  c #394647",
"L  c #35594D",
"P  c #234558",
"I  c #344654",
"U  c #34564C",
"Y  c #3C6453",
"T  c #184060",
"R  c #254B66",
"E  c #385465",
"W  c #2B5372",
"Q  c #335B7B",
"!  c #335571",
"~  c #2E4F67",
"^  c #3D6278",
"/  c #18405F",
"(  c #585844",
")  c #475A4F",
"_  c #635E45",
"`  c #5D6343",
"'  c #6D6945",
"]  c #69634C",
"[  c #686545",
"{  c #716D48",
"}  c #767341",
"|  c #797544",
" . c #7B764B",
".. c #7C7652",
"X. c #7D7656",
"o. c #706D51",
"O. c #435665",
"+. c #47637B",
"@. c #536B7D",
"#. c #566A67",
"$. c #676B66",
"%. c #827D4B",
"&. c #837C59",
"*. c #887F63",
"=. c #5B831C",
"-. c #5C8323",
";. c #5C822A",
":. c #588033",
">. c #628A23",
",. c #658D2A",
"<. c #689028",
"1. c #739B33",
"2. c #698F33",
"3. c #799748",
"4. c #648C51",
"5. c #7F8364",
"6. c #808040",
"7. c #85814C",
"8. c #8A874C",
"9. c #8B8553",
"0. c #8C845C",
"q. c #8A8456",
"w. c #938C5A",
"e. c #928E55",
"r. c #97925A",
"t. c #92B855",
"y. c #8BB24B",
"u. c #9C9464",
"i. c #9C9467",
"p. c #8D8E6C",
"a. c #A39C65",
"s. c #A49B69",
"d. c #A99F6F",
"f. c #A69B75",
"g. c #97B16F",
"h. c #ABA36C",
"j. c #A7A069",
"k. c #ADA372",
"l. c #AEA27C",
"z. c #B3AA73",
"x. c #B9AE7C",
"c. c #B3A879",
"v. c #BCB17C",
"b. c #ACC97E",
"n. c #3B6383",
"m. c #446C8C",
"M. c #4B6C84",
"N. c #51728B",
"B. c #5A7685",
"V. c #4D7595",
"C. c #547692",
"Z. c #577B96",
"A. c #547C9C",
"S. c #5B7E98",
"D. c #536D82",
"F. c #5D809A",
"G. c #67859B",
"H. c #5C84A3",
"J. c #628AAA",
"K. c #698BA6",
"L. c #6C94B4",
"P. c #739BBB",
"I. c #7299B7",
"U. c #7090AA",
"Y. c #7CA4C4",
"T. c #BEB281",
"R. c #ABAD89",
"E. c #A7B1B0",
"W. c #92A5A5",
"Q. c #C1B681",
"!. c #C5BA85",
"~. c #CABE8B",
"^. c #C7BA8B",
"/. c #C9BB90",
"(. c #B2CD86",
"). c #CEC18E",
"_. c #CFC192",
"`. c #D2C393",
"'. c #DCCD9C",
"]. c #D6C896",
"[. c #C5D6AB",
"{. c #E0D0A0",
"}. c #83ABCB",
"|. c #81A8C7",
" X c #88B0D0",
".X c #92BADA",
"XX c #AEBCC6",
"oX c #9EC6E6",
"OX c #A4CCEC",
"+X c #AAD2F2",
"@X c #B0D8F8",
"#X c #E6EDDC",
"$X c #CCE6E6",
"%X c #D1EDED",
"&X c #D8F5F5",
"*X c #EAEDE7",
"=X c #F8F8F8",
"-X c #F4F6F6",
";X c #EBF0E2",
":X c #D3DBC6",
/* pixels */
"                                                                                                                                ",
"                                                                                                                                ",
"                                                                                                                                ",
"                                                                                                                                ",
"                                                                                                                                ",
"                                                    F./ T T T T T                                                               ",
"                                                W L. X}.Y.H.H.T O O O O O                                                       ",
"                                              ^  X+XOX}.J.H.R ,.,.,.-.>.>.3 O                                                   ",
"                                        O : n. X+X@X+X}.H.R ,.t.#X*Xt.<.<.>.>.4                                                 ",
"                                    O 6 =.m n.@X@X@X+X}.H.P y.;X=X=X*Xt.<.<.<.-.3                                               ",
"                                  6 -.<.y.4.m.@X@X@X+XY.A.> #X=X=X=X=X;Xn >.<.<.-.4                                             ",
"                                6 -.1.(.#XW.m.@X+X.X.X}.Z.- =X=X=X=X=X=Xn p >.<.<.4                                             ",
"                              6 =.<.g.#X=XXXm.@XOX X XY.Z.o b.=X=X=X=X(.p u u >.<.-.%                                           ",
"                            O 9 <.=.g.-X=XXXm.+X.X X X}.S.. =.b.=X=X(.>.u u u >.<.<.4 O                                         ",
"                            6 -.=.0 1.:X=XXXm.OX X X X}.Z.X u s 3.3.=.u u u u p -.<.=.*                                         ",
"                          O 9 <.=.0 p 3.(.p.n..X X X X}.Z.. u u 0 0 0 0 <.1.p u =.<.<.4 G T                                     ",
"                          6 -.=.u u 0 p =.m ^ Y. X X X}.A.. u u =.=.u u y.t.s s =.>.<.w W A.m.T                                 ",
"                        O a <.s 0 =.1.=.0 9 n. X X X X}.P.E * =.<.<.=.u =.=.=.s =.>.<.L m.Y.P.H.m.G X                           ",
"                        O a <.s 0 >.t.1.0 q n. X X X X X}.S.X <.<.<.<.u u d s s p =.<.L m.Y. X XP.N.D.+.D                       ",
"                        O 9 <.s 0 d >.=.9 Y J. X X X X X}.J.E 5 <.<.s u u p s s =.>.m ^ V.L.Y. X X X XP.D.I                     ",
"                        O 9 <.>.p p p u q m. X X X X X X XJ.H.; Y s 0 0 u s s s =.=.e +.L.L.P. X X X X XY.C.I                   ",
"                        : m <.-.s s s i : n. X X X X X X}.H.n.V.N.w q 0 d s s s p 9 U N.Y.P.P. X X X X|.L.J.+.X                 ",
"                      V.W L n ;.s s a l E n. X X X X X XY.m.H. X XV.V.w y * y 4 l L N.L.P.P.Y. X X|.Y.L.A.Q I                   ",
"                      Y.H.W e y 5 5 w D.I.V.L. X X X X}.H.H.oX X X X XV.O.O.O.E M.J.J.I.P.Y. X X|.L.N.E ~ D                     ",
"                  n.J.|.P.m.~ H K H +.Y. XP.V.H.H.H.H.H.H.oX X X X X X X X XY.Y.Y.P.P.P.Y. XY.Y.H.+.I X                         ",
"                n.P. X XP.L.J.J.H.L.P. X X XK.R #.B.U Y Y. X X X X X X X X XP.L.L.L.|. X X|.L.N.! ;                             ",
"              W P. X X X XP.I.L.L.Y. X X X XK.L [.:X0 ;./  X X X X X X X X X X X X X X X|.L.A.I                                 ",
"              L.|. X X X X X X X X X X X X XS.) [.R.p ;.-  X X X X X X X X X X X X X XY.L.J.n.                                  ",
"            V.Y. X X X X X X X X X X X X X XG.+ 0 0 =.-.: Y. X X|.Y.|.Y.Y.Y.Y.Y.Y.Y.Y.L.J.C.!                                   ",
"            T H.U.K.L.Y. X X X X X X X X X XL.E 6 0 ;.` n. X XY.J.H.J.M.m.M.M.H.J.J.J.J.C.H                                     ",
"            T T = X D A.P.Y. X X X XY.}.}. X XP.R 1 = n. X X XJ.H.N.N.K o X . O.N.M.M.N.H                                       ",
"                      T T C.Y.}.Y.P.J.H.L.}. X X XU.< +X X XY.J.N.o < $X1 X X X X X X X                               v v M 8.  ",
"                            +.L.S.Z.C.C.A.L.}. X XU.H +X X XH.A.X 1 $X-X< X X X X                                 v V z.z.z.j.g ",
"                              ^ S.O.o > I Z.J. X XP.! +X XY.C.> X %X=X$X> X X X X ..a.a.| h h                 h B a.u.u.u.j.j.g ",
"                                X X $.$XW.o H U. XP.Q +XY.Z.> &X> *X*X> X X X 2 # & g g 8.h.%.j j         h A h.w.t X X . h 2.  ",
"                                    X $.W.#.E.K |.P.Q OXS.= %X*X*X%X= X . X . &.B       f %.h.h.%.j j j A h.h.w.g               ",
"                                      o $.-X-XE.< I.W Y.A.X X X X . X X a.% *.N w.V @ X X X % g r.{.{.{.v.S g g                 ",
"                                        X o X X = F X X o T F X X S d.$ u.G.x g g e.Z 8.z.h.z.!.!.7.g g %.).e.g                 ",
"                                      g V { % z X > H.A.H.H.H.F X t j.h a.N B.! k # ..Z g % o & B 6.      a.'.c.g               ",
"                                    A &.{ X.% b = W Y.L. XY.H.X X g j.h j r.N P     o u.].&.            g j %.{.x.g             ",
"                                B e.j.8.A .., d.5.n.oXL.}.}.H.X u.g h.# N.m r.N P     $ &.!.9.g     g 8./.`.k.v Z a.6.          ",
"                        g g B e.a.{ 2 | | % C p.M.oXoXJ. X XH.X h g d.$ P N.` c.'       j v u.q.g q.~.`.{.{.'.~.f.k !.6.        ",
"                      6.h.!.z.[ # > t A o.@ | R.n.@XoXL. X}.H.X   g d.@ F F.F.[ k.| g       N u.^.`.{.{.{.{.{.{.l., ].r.X       ",
"                    6.z.!.o., >       %.s.V /.R.n.@XoXJ. X}.H.X   g /.w.l R F.F.o.d.j.Z g # X.`.).v.v.x.v.v.x.u.2 %.{.~.&.X     ",
"                  7.z.Q.' >         t q.d.%.Q.[   A.OXL. X}.H.D     e.).N P A.H.! ` z.^.x o./.~.z.w.j , , , 2 v   A {.{.~.&.X   ",
"                g j.Q.[ %         A | 9.k. .f.@   W Y..XI. XY.V.X   h `.6.  W A.W   ' x *./.~.w.B 9.l.f.i.' &       9.{.'.a.X   ",
"        6.6.6.6.A Q.w.f         | ' C q.w.c.0.X     m.OXJ. X}.J.D     r.Q.V P V.W   @ o./.~.w.C B }  .s.'.v.7.g       w.k 2     ",
"    6.6.v.Q.Q.Q.Q.w.v         9..., X.9.%.x.C       Q OXJ. X XY.V.o   M ~.x.( ( l f 0./.{.&.f g %.r.b f s.'.v.%.g               ",
"  6.v.v.'.{.{.{.{.v.k. .    B j.0.&   q.c.0.$       ) |..X X X XJ.o     ( ^.x.k.k.k.`.{.p.2   g | z.' . Z s.'.z.V               ",
"6.x.'.{.{.{.{.{.{.{.{.T. .g r.a.|   %.Q.l._ &.      c m.+XoX X XY.D       ( u.`.'.{.x...2     g 9.Q.{ X   8.~.].z.              ",
"M '.{.{.!.!.!.!.!.!.!.].T.Z { V t %.T.l.x ' c.g     j $.B.+X X X}.H.R         ] ] ] {         B a.~. .%   8.h.{.!.M             ",
"g ].{.~.z.7.x x x x Z j.!.k.u.a.a.k.f.(   Z r.w.    M u.- H.P. X X XD                         a.~.].a.B     7.).c.#             ",
"g Q.!.z.7.h % ] X.> % A ' i.!.!.z...k       9.`.w.M  .}     H.A. X}.@.R T T =               B s.{.~.a.      V z.i.X             ",
"g %.%.%.h   g T.{.c     # k b _ z %         r.v._.w.} %       T A.P. XZ.T G =               g u.{.d.B       j _ x               ",
"  g g g     g T.`.x       # c k #             8.k.`.0.]         T H.A.@.D o                 % 0.{.i.%         X                 ",
"              &.o.v       g s.d.z             N 7.k.{.`.] c         T o X                     ( &._                             ",
"                X         M d.`...#         M 7.a.%.d.k.~.s.X                                   X                               ",
"                            j.).j.z         z k.a.{ g h q.{ X                                                                   ",
"                            S h.!.[ X       , ..[ X     t X                                                                     ",
"                            g w.Q.[ X         X X                                                                               ",
"                              { &.x                                                                                             ",
"                              X X X                                                                                             ",
"                                                                                                                                ",
"                                                                                                                                "
};
