/* XPM */
static char *c7a10c1c3d1147a0c56deb549bb41064AY6RJVJ4fZVZMj0J[] = {
/* columns rows colors chars-per-pixel */
"64 64 200 2 ",
"   c None",
".  c #14170F",
"X  c #111111",
"o  c #161918",
"O  c #083000",
"+  c #142F0F",
"@  c #252516",
"#  c #2B2B17",
"$  c #25241B",
"%  c #32321A",
"&  c #383B1B",
"*  c #263810",
"=  c #141C22",
"-  c #1E2122",
";  c #162A3A",
":  c #10382D",
">  c #282A27",
",  c #393728",
"<  c #2C3337",
"1  c #2A322D",
"2  c #423F33",
"3  c #1B4308",
"4  c #27480B",
"5  c #384D15",
"6  c #335A12",
"7  c #3D541C",
"8  c #30520E",
"9  c #3A6215",
"0  c #3E6605",
"q  c #335B21",
"w  c #355436",
"e  c #324E35",
"r  c #3D6032",
"t  c #47471E",
"y  c #445C1C",
"u  c #416901",
"i  c #43630F",
"p  c #4B730B",
"a  c #426917",
"s  c #537B14",
"d  c #4F7511",
"f  c #494927",
"g  c #515121",
"h  c #5C5B2A",
"j  c #57562A",
"k  c #4A4835",
"l  c #485436",
"z  c #5C5A33",
"x  c #58563B",
"c  c #514E37",
"v  c #615F2E",
"b  c #615E39",
"n  c #587B24",
"m  c #4E6C37",
"M  c #63632D",
"N  c #646332",
"B  c #6C6B34",
"V  c #6D6B3A",
"C  c #666438",
"Z  c #716E3D",
"A  c #75723D",
"S  c #747438",
"D  c #183247",
"F  c #183C59",
"G  c #152E42",
"H  c #2E3D48",
"J  c #2A3E4E",
"K  c #394647",
"L  c #35594D",
"P  c #234558",
"I  c #344654",
"U  c #34564C",
"Y  c #3C6453",
"T  c #184060",
"R  c #254B66",
"E  c #385465",
"W  c #2B5372",
"Q  c #335B7B",
"!  c #335571",
"~  c #2E4F67",
"^  c #3D6278",
"/  c #18405F",
"(  c #585844",
")  c #475A4F",
"_  c #635E45",
"`  c #5D6343",
"'  c #6D6945",
"]  c #69634C",
"[  c #686545",
"{  c #716D48",
"}  c #767341",
"|  c #797544",
" . c #7B764B",
".. c #7C7652",
"X. c #7D7656",
"o. c #706D51",
"O. c #435665",
"+. c #47637B",
"@. c #536B7D",
"#. c #566A67",
"$. c #676B66",
"%. c #827D4B",
"&. c #837C59",
"*. c #887F63",
"=. c #5B831C",
"-. c #5C8323",
";. c #5C822A",
":. c #588033",
">. c #628A23",
",. c #658D2A",
"<. c #689028",
"1. c #739B33",
"2. c #698F33",
"3. c #799748",
"4. c #648C51",
"5. c #7F8364",
"6. c #808040",
"7. c #85814C",
"8. c #8A874C",
"9. c #8B8553",
"0. c #8C845C",
"q. c #8A8456",
"w. c #938C5A",
"e. c #928E55",
"r. c #97925A",
"t. c #92B855",
"y. c #8BB24B",
"u. c #9C9464",
"i. c #9C9467",
"p. c #8D8E6C",
"a. c #A39C65",
"s. c #A49B69",
"d. c #A99F6F",
"f. c #A69B75",
"g. c #97B16F",
"h. c #ABA36C",
"j. c #A7A069",
"k. c #ADA372",
"l. c #AEA27C",
"z. c #B3AA73",
"x. c #B9AE7C",
"c. c #B3A879",
"v. c #BCB17C",
"b. c #ACC97E",
"n. c #3B6383",
"m. c #446C8C",
"M. c #4B6C84",
"N. c #51728B",
"B. c #5A7685",
"V. c #4D7595",
"C. c #547692",
"Z. c #577B96",
"A. c #547C9C",
"S. c #5B7E98",
"D. c #536D82",
"F. c #5D809A",
"G. c #67859B",
"H. c #5C84A3",
"J. c #628AAA",
"K. c #698BA6",
"L. c #6C94B4",
"P. c #739BBB",
"I. c #7299B7",
"U. c #7090AA",
"Y. c #7CA4C4",
"T. c #BEB281",
"R. c #ABAD89",
"E. c #A7B1B0",
"W. c #92A5A5",
"Q. c #C1B681",
"!. c #C5BA85",
"~. c #CABE8B",
"^. c #C7BA8B",
"/. c #C9BB90",
"(. c #B2CD86",
"). c #CEC18E",
"_. c #CFC192",
"`. c #D2C393",
"'. c #DCCD9C",
"]. c #D6C896",
"[. c #C5D6AB",
"{. c #E0D0A0",
"}. c #83ABCB",
"|. c #81A8C7",
" X c #88B0D0",
".X c #92BADA",
"XX c #AEBCC6",
"oX c #9EC6E6",
"OX c #A4CCEC",
"+X c #AAD2F2",
"@X c #B0D8F8",
"#X c #E6EDDC",
"$X c #CCE6E6",
"%X c #D1EDED",
"&X c #D8F5F5",
"*X c #EAEDE7",
"=X c #F8F8F8",
"-X c #F4F6F6",
";X c #EBF0E2",
":X c #D3DBC6",
/* pixels */
"                                                    A.T T T T / /                                                               ",
"                                                W L.}.}.Y.H.H./ O O O O O                                                       ",
"                                              Q  X+X+X}.J.H.R ,.,.-.>.>.,.3 O                                                   ",
"                                        O : ^  X@X+X+X}.H.R ;.t.#X;Xt.2.<.-.>.3                                                 ",
"                                    O 8 :.:.n.@X@X@X+X}.H.P t.#X=X=X;Xt.<.<.<.-.3                                               ",
"                                  6 -.1.3.4.n.@X@X@X+X}.Z.; #X=X=X=X=X#X;.>.<.<.-.4                                             ",
"                                6 >.1.b.#XE.V.@X+X.X.X}.Z.$ =X=X=X=X=X=X-.u >.<.<.4                                             ",
"                              6 >.<.g.;X-XXXn.@XOX X XY.Z.o b.=X=X=X=X(.d 0 p >.<.;.4                                           ",
"                            O 9 <.=.g.=X=XXXV.+X.X X XY.Z.. =.b.=X=X(.>.u u u =.<.<.4 O                                         ",
"                            6 -.=.u 2.[.=XXXn.+X X X X}.Z.. 0 =.3.3.s u u u u p >.<.n *                                         ",
"                          O 9 <.=.0 d 1.(.5.n..X X X X}.Z.. 0 u u u u u <.1.p u =.<.<.& ; /                                     ",
"                          6 -.=.p u u p =.m n..X X X X}.Z.. u u s =.u u y.t.d s =.-.<.e ! H.n./                                 ",
"                        O a <.s 0 =.1.=.0 q ^  X X X X XP.E * =.2.<.=.u =.>.=.s =.=.<.L n.Y.P.H.m.; X                           ",
"                        O 9 <.s 0 >.y.1.0 q n. X X X X XY.H.. <.<.<.<.u u s s s =.=.<.Y n.Y. X XP.Z.@.+.G                       ",
"                        O a <.s 0 s =.=.9 Y J. X X X X X XH.E 7 <.<.s u u d s s s >.m ^ F.L.Y. X X X XP.M.I                     ",
"                        O a <.=.p p p 0 q n. X X X X X XY.H.H.G Y s u u 0 d s s s =.e ^ L.L.P. X X X X XY.C.I                   ",
"                        : m <.=.s s s y 1 n. X X X X X XY.J.n.V.V.q e 0 s s s s s y K V.Y.P.P. X X X X}.I.J.+.X                 ",
"                      V.W L :.-.s s d l E n. X X X X X XY.n.J. X XV.V.w y 4 7 4 l U N.L.P.P.Y. X XY.P.L.A.Q I                   ",
"                      }.A.W e y 5 8 e D.I.V.L. X X X XY.J.H.OX X X X XC.O.O.E O.M.J.L.L.P.Y. X XY.L.N.O.E D                     ",
"                  n.J.Y.P.m.R J I K +.P. XI.V.H.H.H.H.H.J.oXY..X X X X X X}.Y.Y.Y.Y.P.P.Y. XY.Y.H.+.I X                         ",
"                n.P. X XY.J.J.J.H.J.Y. X X XJ.R #.B.U Y Y. X X X X X X X X XY.L.L.L.Y. X}.}.L.N.! G                             ",
"              Q I. X X X XP.L.L.L.Y. X X X XK.Y [.:X0 -.F  X X X X X X X X X X X X X X X|.L.A.I                                 ",
"              L.}. X X X X X X X X X X X X XG., [.R.p n -  X X X X X X X X X X.X X X XY.L.H.n.                                  ",
"            V.Y. X X X X X X X X X X X X X XG.> u u d >.;  X X.XY.Y.Y.Y.Y.Y.Y.Y.Y.Y.Y.L.J.C.!                                   ",
"            T H.K.K.L.|. X X X X X.X X X X XI.E 5 6 n ` n. X XY.H.J.J.M.M.M.D.S.J.J.H.J.C.H                                     ",
"            T T = X G A.I.|. X X XY.Y.Y.}. X XP.~ > - n. X X XH.J.V.M.K o X X O.N.M.N.M.H                                       ",
"                      T T C.Y.}.Y.I.J.J.L.}. X X XU.< +X X XY.H.N.o < $X< X X X X X X X                               v M M 8.  ",
"                            +.L.H.H.V.F.A.L.}..X XU.J +X X XH.C.X 1 %X-X< X X X X                                 h V z.z.k.h.g ",
"                              ^ F.E o > I S.S. X XI.Q +X XY.C.> X %X-X$X> X X X X  .s.s.A h h                 h V a.u.u.u.h.j.g ",
"                                X X #.%XW.o H U. XI.Q +XY.Z.1 &X- *X#X> X X X f # & g g 8.h.%.j j         h A h.w.t X X . g 6.  ",
"                                    X $.W.$.E.K Y.P.Q OXF.- %X*X*X%X- X . X X q.B       t %.h.h.6.j j j A h.h.w.g               ",
"                                      X $.-X*XE.H L.W Y.Z.X X X X X X X a.> 0.N r.Z @ X o X & g r.{.'.'.v.S g g                 ",
"                                        X X X X = D X X o / F X X | d.@ u.G.x g g e.V 9.h.z.h.~.~.&.g g %.`.e.g                 ",
"                                      g V ..% z X ; H.H.H.H.H.F X f s.h a.v B.W k @  .} g % o & B 2.      a.'.x.g               ",
"                                    A 7.A ..1 N = W Y.L.Y.Y.H.X X g d.h j r.C P     o p.].7.            g h %.'.x.g             ",
"                                M e.h.9.A .., s.5.Q oXL. X XH.X u.g d.# N.b r.N I     > X.!.0.g     g 9.`./.k.v Z u.6.          ",
"                        g g B e.h.' , A { % C p.M.oXoXL. X XH.X h g s.$ P N.` z.'       j v s.9.g w.~.`.{.{.'.~.f.k !.6.        ",
"                      6.k.^.z.[ # > t A  .@ | R.n.@XOXJ. X}.H.X   g j.@ F A.F.' k.| g       v u.^.`.{.{.{.{.{.{.l., ].r.X       ",
"                    6.z.Q.o., >       8.s.' _.R.n.@XoXL. X}.H.X   g ).u.l R F.F.o.h.d.V g # &./.~.x.v.x.x.x.x.r.k  .{.).&.X     ",
"                  6.z.Q.] #         g 9.k. .T.'   A.oXJ. X XH.D     e.).M P A.H.E ( c.^.b o./.~.x.e.g , , , 2 v   A {.'.~.&.X   ",
"                g d.Q.] %         A | 9.d. .f.@   W Y..XI. XY.V.X   h `.6.  W H.W   Z x *./.~.w.B 9.R.f.i.' t       9.'.'.d.X   ",
"        6.6.6.6.Z Q.e.f         } ' b 9.w.x.0.X     m.OXJ. X XH.D     r.v.C P V.W   @ o./.~.w.N B Z %.s.'.v.%.g       w.k ,     ",
"    6.6.v.Q.Q.Q.Q.w.v         9.X., &.8.%.T.b       Q OXJ. X XY.m.o   M ).x.( ( l f 0./.'.&.f g %.r.C f s.'.v.7.g               ",
"  6.v.Q.'.{.{.{.{.T.k.|     S d.0.&   9.c.w.@       ) }..X X X XJ.o     ( /.x.h.k.k./.{.p.2   g %.h.' o Z i.'.z.S               ",
"2.x.'.{.{.{.{.{.{.{.{.Q. .g w.s.|   %.x.f._ &.      l V.+XOX X XY.D       ( u.`.{.{.v.X.2     g 9.Q.' X   8.).].z.              ",
"v '.{.{.!.!.!.Q.!.!.Q.].x.} V B g %.Q.R.x ' x.g     j $.B.+X X X XH.R         ] ] ] {         B a.~.%.%   8.h.{.Q.M             ",
"j '.{.~.z.7.b x x x } d.!.k.a.s.u.k.s.(   } w.0.    v u.o J.P. X X XG                         j.~.].a.N     %.~.T.#             ",
"g Q.!.z.8.h % ] &.> # A [ i.^.^.k...k       9.`.w.h %.|     H.A. X X@.R T T =               N s.{.~.a.      V c.i.X             ",
"g %.%.%.h   g T.{.c     # k _ b z %         r.v.`.w.A %       T A.P. XA.T G o               g u.{.d.B       z _ x               ",
"  g g g     g T.`.x       # c c #             8.k.`.q.]         T H.A.D.D o                 % 0.{.w.%         X                 ",
"              &.o.z       g s.d.x             N %.k.{./._ c         T o X                     ( *._                             ",
"                X         M s._. .#         N 7.s.%.d.k.~.s.X                                   X                               ",
"                            h._.h.z         z z.s.{ g h 9.{ X                                                                   ",
"                            B h.~.[ X       , ..[ X     t X                                                                     ",
"                            g w.Q.[ X         X X                                                                               ",
"                              Z &.x                                                                                             ",
"                              X X X                                                                                             ",
"                                                                                                                                ",
"                                                                                                                                ",
"                                                                                                                                ",
"                                                                                                                                ",
"                                                                                                                                ",
"                                                                                                                                ",
"                                                                                                                                "
};
