/* XPM */
static char *_fe1cd5ec8544761829534e1a642bb0cVQxAOe268UzubaCP[] = {
/* columns rows colors chars-per-pixel */
"64 64 83 1 ",
"  c #004D8F",
". c #005095",
"X c #00589D",
"o c #0060A4",
"O c #006AAD",
"+ c #0068AB",
"@ c #005FA2",
"# c #00579B",
"$ c #004F93",
"% c #0060A3",
"& c #0070B1",
"* c #0088C7",
"= c #00A0DB",
"- c #00A2DE",
"; c #0099D9",
": c #0080C2",
"> c #005699",
", c #006CB1",
"< c #0087C6",
"1 c #009ED9",
"2 c #0081C4",
"3 c #006AAE",
"4 c #00AFE8",
"5 c #0CD4FF",
"6 c #11D5FE",
"7 c #06CDFF",
"8 c #00A6E4",
"9 c #007EC0",
"0 c #005A9F",
"q c #0082C6",
"w c #00AEE7",
"e c #0ACEFF",
"r c #07D3FF",
"t c #00A7E5",
"y c #005FA1",
"u c #3BEAFF",
"i c #42EFFF",
"p c #34E4FF",
"a c #04CCFF",
"s c #0094D2",
"d c #0068AA",
"f c #37E9FF",
"g c #35E9FF",
"h c #0097D6",
"j c #0063A8",
"k c #49F0FE",
"l c #39EAFF",
"z c #08D3FF",
"x c #00A0DC",
"c c #0DD4FF",
"v c #40EFFF",
"b c #3DEAFF",
"n c #0CCEFF",
"m c #2BE3FE",
"M c #00CAFC",
"N c #008ED0",
"B c #0067A9",
"V c #0096D5",
"C c #30E9FE",
"Z c #2EE4FE",
"A c #00CCFF",
"S c #0064A4",
"D c #00A1DD",
"F c #007CBD",
"G c #00599E",
"H c #00A3E0",
"J c #02CCFF",
"K c #007EBF",
"L c #005D9F",
"P c #005698",
"I c #0093D1",
"U c #004E91",
"Y c #005D9E",
"T c #0064AA",
"R c #0084C2",
"E c #009DD7",
"W c #07CDFF",
"Q c #007FC1",
"! c #005EA0",
"~ c #36E9FF",
"^ c #03CCFF",
"/ c #0096D4",
"( c #0061A6",
/* pixels */
"                                                                ",
"                                                                ",
"  .XoOOOOOOOO+@#$$#%+OOOOOOO+%#$$#%+OOOOOOO+%#$$#@+OOOOOOOOoX.  ",
"  X&*=-------;:O>#,<=-------123>>321-------=<,#>O:;-------=*&X  ",
"  o*4566666667890@qwe6666666rt:yy:tr6666666ewq@0987666666654*o  ",
"  O=5uiiiiiiipas%d1efiiiiiiig7hjjh7giiiiiiife1d%sapiiiiiiiu5=O  ",
"  O-6ikkkkkkklzho+xcvkkkkkkkbn1jj1nbkkkkkkkvcx+ohzlkkkkkkki6-O  ",
"  O-6ikkkkkkklzho+xcvkkkkkkkbn1jj1nbkkkkkkkvcx+ohzlkkkkkkki6-O  ",
"  O-6ikkkkkkklzho+xcvkkkkkkkbn1jj1nbkkkkkkkvcx+ohzlkkkkkkki6-O  ",
"  O-6ikkkkkkklzho+xcvkkkkkkkbn1jj1nbkkkkkkkvcx+ohzlkkkkkkki6-O  ",
"  O-6ikkkkkkklzho+xcvkkkkkkkbn1jj1nbkkkkkkkvcx+ohzlkkkkkkki6-O  ",
"  O-6ikkkkkkklzho+xcvkkkkkkkbn1jj1nbkkkkkkkvcx+ohzlkkkkkkki6-O  ",
"  O-6ikkkkkkklzho+xcvkkkkkkkbn1jj1nbkkkkkkkvcx+ohzlkkkkkkki6-O  ",
"  +;7plllllllmMN%BVaClllllllZAsSSsAZlllllllCaVB%NMmlllllllp7;+  ",
"  @:8azzzzzzzMDFGy9HJzzzzzzzA-KLLK-AzzzzzzzJH9yGFDMzzzzzzza8:@  ",
"  #O9shhhhhhhNF+P>OKshhhhhhhIK+>>+KIhhhhhhhsKO>P+FNhhhhhhhs9O#  ",
"  $>0%ooooooo%GPU$>Y%ooooooo%YPUUPY%ooooooo%Y>$UPG%ooooooo%0>$  ",
"  $#@d+++++++By>$$#yT+++++++By#$$#yB+++++++Ty#$$>yB+++++++d@#$  ",
"  #,q1xxxxxxxV9O>#3RExxxxxxxh:O>>O:hxxxxxxxER3#>O9Vxxxxxxx1q,#  ",
"  %<wecccccccaHKYyRtWccccccc78Q!!Q87cccccccWtRyYKHacccccccew<%  ",
"  +=efvvvvvvvCJs%TEW~vvvvvvvpaVjjVapvvvvvvv~WET%sJCvvvvvvvfe=+  ",
"  O-6ikkkkkkklzho+xcvkkkkkkkbn1jj1nbkkkkkkkvcx+ohzlkkkkkkki6-O  ",
"  O-6ikkkkkkklzho+xcvkkkkkkkbn1jj1nbkkkkkkkvcx+ohzlkkkkkkki6-O  ",
"  O-6ikkkkkkklzho+xcvkkkkkkkbn1jj1nbkkkkkkkvcx+ohzlkkkkkkki6-O  ",
"  O-6ikkkkkkklzho+xcvkkkkkkkbn1jj1nbkkkkkkkvcx+ohzlkkkkkkki6-O  ",
"  O-6ikkkkkkklzho+xcvkkkkkkkbn1jj1nbkkkkkkkvcx+ohzlkkkkkkki6-O  ",
"  O-6ikkkkkkklzho+xcvkkkkkkkbn1jj1nbkkkkkkkvcx+ohzlkkkkkkki6-O  ",
"  O-6ikkkkkkklzho+xcvkkkkkkkbn1jj1nbkkkkkkkvcx+ohzlkkkkkkki6-O  ",
"  +1rgbbbbbbbZAI%Bh7pbbbbbbbC^/((/^Cbbbbbbbp7hB%IAZbbbbbbbgr1+  ",
"  %2t7nnnnnnnA-KYy:8annnnnnn^H9LL9H^nnnnnnna8:yYK-Annnnnnn7t2%  ",
"  #3:h1111111sK+P#OQV1111111/9O>>O9/1111111VQO#P+Ks1111111h:3#  ",
"  $>yjjjjjjjjSL>U$>!jjjjjjjj(L>$$>L(jjjjjjjj!>$U>LSjjjjjjjjy>$  ",
"  $>yjjjjjjjjSL>U$>!jjjjjjjj(L>$$>L(jjjjjjjj!>$U>LSjjjjjjjjy>$  ",
"  #3:h1111111sK+P#OQV1111111/9O>>O9/1111111VQO#P+Ks1111111h:3#  ",
"  %2t7nnnnnnnA-KYy:8annnnnnn^H9LL9H^nnnnnnna8:yYK-Annnnnnn7t2%  ",
"  +1rgbbbbbbbZAI%Bh7pbbbbbbbC^/((/^Cbbbbbbbp7hB%IAZbbbbbbbgr1+  ",
"  O-6ikkkkkkklzho+xcvkkkkkkkbn1jj1nbkkkkkkkvcx+ohzlkkkkkkki6-O  ",
"  O-6ikkkkkkklzho+xcvkkkkkkkbn1jj1nbkkkkkkkvcx+ohzlkkkkkkki6-O  ",
"  O-6ikkkkkkklzho+xcvkkkkkkkbn1jj1nbkkkkkkkvcx+ohzlkkkkkkki6-O  ",
"  O-6ikkkkkkklzho+xcvkkkkkkkbn1jj1nbkkkkkkkvcx+ohzlkkkkkkki6-O  ",
"  O-6ikkkkkkklzho+xcvkkkkkkkbn1jj1nbkkkkkkkvcx+ohzlkkkkkkki6-O  ",
"  O-6ikkkkkkklzho+xcvkkkkkkkbn1jj1nbkkkkkkkvcx+ohzlkkkkkkki6-O  ",
"  O-6ikkkkkkklzho+xcvkkkkkkkbn1jj1nbkkkkkkkvcx+ohzlkkkkkkki6-O  ",
"  +=efvvvvvvvCJs%TEW~vvvvvvvpaVjjVapvvvvvvv~WET%sJCvvvvvvvfe=+  ",
"  %<wecccccccaHKYyRtWccccccc78Q!!Q87cccccccWtRyYKHacccccccew<%  ",
"  #,q1xxxxxxxV9O>#3RExxxxxxxh:O>>O:hxxxxxxxER3#>O9Vxxxxxxx1q,#  ",
"  $#@d+++++++By>$$#yT+++++++By#$$#yB+++++++Ty#$$>yB+++++++d@#$  ",
"  $>0%ooooooo%GPU$>Y%ooooooo%YPUUPY%ooooooo%Y>$UPG%ooooooo%0>$  ",
"  #O9shhhhhhhNF+P>OKshhhhhhhIK+>>+KIhhhhhhhsKO>P+FNhhhhhhhs9O#  ",
"  @:8azzzzzzzMDFGy9HJzzzzzzzA-KLLK-AzzzzzzzJH9yGFDMzzzzzzza8:@  ",
"  +;7plllllllmMN%BVaClllllllZAsSSsAZlllllllCaVB%NMmlllllllp7;+  ",
"  O-6ikkkkkkklzho+xcvkkkkkkkbn1jj1nbkkkkkkkvcx+ohzlkkkkkkki6-O  ",
"  O-6ikkkkkkklzho+xcvkkkkkkkbn1jj1nbkkkkkkkvcx+ohzlkkkkkkki6-O  ",
"  O-6ikkkkkkklzho+xcvkkkkkkkbn1jj1nbkkkkkkkvcx+ohzlkkkkkkki6-O  ",
"  O-6ikkkkkkklzho+xcvkkkkkkkbn1jj1nbkkkkkkkvcx+ohzlkkkkkkki6-O  ",
"  O-6ikkkkkkklzho+xcvkkkkkkkbn1jj1nbkkkkkkkvcx+ohzlkkkkkkki6-O  ",
"  O-6ikkkkkkklzho+xcvkkkkkkkbn1jj1nbkkkkkkkvcx+ohzlkkkkkkki6-O  ",
"  O-6ikkkkkkklzho+xcvkkkkkkkbn1jj1nbkkkkkkkvcx+ohzlkkkkkkki6-O  ",
"  O=5uiiiiiiipas%d1efiiiiiiig7hjjh7giiiiiiife1d%sapiiiiiiiu5=O  ",
"  o*4566666667890@qwe6666666rt:yy:tr6666666ewq@0987666666654*o  ",
"  X&*=-------;:O>#,<=-------123>>321-------=<,#>O:;-------=*&X  ",
"  .XoOOOOOOOO+@#$$#%+OOOOOOO+%#$$#%+OOOOOOO+%#$$#@+OOOOOOOOoX.  ",
"                                                                ",
"                                                                "
};
